<?xml version="1.0" encoding="UTF-8"?>
<svg width="76px" height="66px" viewBox="0 0 76 66" version="1.1" xmlns="http://www.w3.org/2000/svg" xmlns:xlink="http://www.w3.org/1999/xlink">
    <!-- Generator: Sketch 51.3 (57544) - http://www.bohemiancoding.com/sketch -->
    <title>main-logo-icon</title>
    <defs></defs>
    <g id="Page-1" stroke="none" stroke-width="1" fill="none" fill-rule="evenodd">
        <g id="default" transform="translate(-112.000000, -92.000000)" fill="#00A3DD" fill-rule="nonzero">
            <g id="main-logo-icon" transform="translate(112.559638, 91.735302)">
                <path d="M74.645746,52.7087314 L44.8473439,1.12305536 C44.5478624,0.598962856 43.9488996,0.299481428 43.3499367,0.299481428 L31.44555,0.299481428 C30.8465871,0.299481428 30.2476242,0.598962856 29.9481428,1.12305536 L0.224611071,52.7087314 C-0.074870357,53.2328239 -0.074870357,53.9066571 0.224611071,54.4307496 L6.21423963,64.7628588 C6.51372106,65.2869513 7.11268392,65.5864328 7.71164678,65.5864328 L67.2335806,65.5864328 C67.8325435,65.5864328 68.4315063,65.2869513 68.7309878,64.7628588 L74.7206163,54.4307496 C74.9452274,53.9066571 74.9452274,53.2328239 74.645746,52.7087314 Z M32.493735,3.74351785 L40.4299928,3.74351785 L18.1186264,42.3766221 C17.819145,42.9007146 17.819145,43.5745478 18.1186264,44.0986403 C18.4181078,44.6227328 19.0170707,44.9222142 19.6160335,44.9222142 L42.4514924,44.9222142 L46.4196214,51.8102871 L4.71683249,51.8102871 L32.493735,3.74351785 Z M37.4351785,36.3869935 L40.4299928,41.5530482 L34.4403642,41.5530482 L37.4351785,36.3869935 Z M4.71683249,55.2543235 L49.3395653,55.2543235 C49.9385282,55.2543235 50.537491,54.9548421 50.8369724,54.4307496 C51.1364539,53.9066571 51.1364539,53.2328239 50.8369724,52.7087314 L39.4566782,32.9429571 L43.4248071,26.0548843 L64.2387663,62.1423963 L8.68496142,62.1423963 L4.71683249,55.2543235 Z M67.2335806,60.4203781 L44.8473439,21.7872739 C44.5478624,21.2631814 43.9488996,20.9637 43.3499367,20.9637 C42.7509739,20.9637 42.152011,21.2631814 41.8525296,21.7872739 L30.4722353,41.5530482 L22.5359775,41.5530482 L43.4248071,5.46553606 L71.2017096,53.6071756 L67.2335806,60.4203781 Z" id="Shape"></path>
            </g>
        </g>
    </g>
</svg>